<svg id="Azul" xmlns="http://www.w3.org/2000/svg" viewBox="0 0 620 606.24"><defs><style>.cls-1,.cls-2{fill:#fff;}.cls-1{fill-rule:evenodd;}</style></defs><title>cca_blanco</title><path class="cls-1" d="M340.82,556.72l-12.73,1.05-11.36,51.35,9.06-.22,3.83-13,19.47.34,5.23,10.2,9-1.38ZM332,587.28s3-19.18,3.75-19l9.34,19.37Z" transform="translate(-6 -2.88)"/><path class="cls-1" d="M373.34,601.59l-8.85,1.66.72-52.1,11.41-2.93,12.28,41.26L399.38,541l14-5.8.16,54.48-8.57,3.25s1.15-38-2-38.28c-2.81.25-9.06,41.7-9.06,41.7L383.37,599s-6.55-35.29-9.69-34.74c-1.38-.24-.31,39.18-.31,39.18Z" transform="translate(-6 -2.88)"/><path class="cls-2" d="M373.27,603.39s0-.61,0-1.69l-8.84,1.66v-.12l.72-52.17,11.57-3,0,.09,12.18,40.91,10.41-48.19,0,0L413.44,535v.14l.16,54.55-.06,0-8.7,3.3v-.14c.32-10.55.6-38-1.89-38.19-2.23.2-7.22,30.11-9,41.62v.06h-.06l-10.64,2.66,0-.1c0-.09-1.63-8.79-3.62-17.37-1.49-6.46-4.24-17.3-5.9-17.3h-.09c-.69.37-.79,15-.25,37.17h0v.11l0,1.8h-.19Zm-8-52.17-.72,51.91,8.64-1.62c-.21-8.59-.8-36.21.31-37.34a.19.19,0,0,1,.14-.06h.09c3.16,0,9.23,32.28,9.69,34.73l10.38-2.59c.13-.88,1.65-10.84,3.47-20.7,3.84-20.86,5.22-21,5.67-21,2.06.18,2.21,14.6,2.26,19.34.09,8.8-.15,17.68-.18,18.9l8.37-3.17-.16-54.28L399.47,541,389,589.51h-.18l-12.26-41.17Z" transform="translate(-6 -2.88)"/><path class="cls-1" d="M300.26,557.47l-7.58-.34s1.68,34.43-.21,33.92-24.12-36.65-24.12-36.65l-9.83-1.84,1.54,52.11,8.94,1.45s-1.45-34.6.88-34.39,22.68,36.44,22.68,36.44l10.38.4-2.68-51.1Z" transform="translate(-6 -2.88)"/><path class="cls-2" d="M303,608.67h-.1l-10.43-.4,0,0c-7-12.53-20.82-36.25-22.6-36.39h0a.2.2,0,0,0-.15.07c-1.94,2-.63,33.89-.62,34.21v.12l-.11,0-9-1.46v-.08l-1.54-52.22.12,0,9.87,1.85,0,0c7.69,12.49,22.61,36.2,24.06,36.61a.14.14,0,0,0,.08,0c1.24-1.31.55-22.67,0-33.79V557h.1l7.67.35v.09Zm-10.42-.59,10.22.39-2.67-50.91-7.39-.34c.11,2.36,1.52,32.17-.06,33.83a.28.28,0,0,1-.2.1h-.06c-1.88-.52-23-34.73-24.15-36.65l-9.67-1.81,1.53,51.91L268.9,606c-.1-2.44-1.28-32.19.68-34.24a.39.39,0,0,1,.28-.14h0C272.19,571.81,291.47,606,292.62,608.08Z" transform="translate(-6 -2.88)"/><path class="cls-1" d="M206.24,536.5l9,3.83s-.47,31.43.18,36.6,5.55,9.65,9.35,11.72,8.63,3.13,11.47-2.39c2.2-4.45.93-38.5.93-38.5l9.41,2.38-.18,42.28c-4.5,6.75-13.47,7.52-22.72,4.17-7.26-2-16.55-14.85-17.44-18.68C205.19,573.36,206.24,536.5,206.24,536.5Z" transform="translate(-6 -2.88)"/><path class="cls-2" d="M233.74,598.62a29.85,29.85,0,0,1-10.1-1.94c-7.21-2-16.56-14.68-17.5-18.75-1-4.51,0-41.07,0-41.43v-.14l.13.05,9.06,3.85v.06c0,.31-.46,31.48.18,36.58.44,3.51,3.48,8.47,9.3,11.65a11.68,11.68,0,0,0,5.49,1.67c2.51,0,4.48-1.35,5.85-4,2.17-4.37.93-38.11.92-38.45v-.13l.12,0,9.48,2.39v.07l-.18,42.31,0,0C243.8,596.49,239.4,598.62,233.74,598.62Zm-27.41-62c-.07,2.49-1,36.9,0,41.25.46,2,3.18,6.3,6.31,10,2.3,2.72,6.81,7.46,11.06,8.61a29.66,29.66,0,0,0,10,1.93c5.57,0,9.92-2.09,12.56-6l.18-42.18-9.21-2.33c.1,2.61,1.2,34.09-.94,38.41-1.41,2.74-3.43,4.12-6,4.12a11.87,11.87,0,0,1-5.58-1.69,22.7,22.7,0,0,1-5.88-4.7,13.49,13.49,0,0,1-3.52-7.09c-.63-5-.21-35-.18-36.55Z" transform="translate(-6 -2.88)"/><path class="cls-2" d="M88.28,467.53l-3.1-7.66c4.13-1.88,7.94-2.43,11.38-1.6a17.07,17.07,0,0,1,9.28,6.16A17.36,17.36,0,0,1,110,478.1c-.63,5-3.37,9.46-8.22,13.55Q94.07,498,86.5,497.6t-13-6.94c-3.17-3.8-4.6-7.79-4.31-12a16.13,16.13,0,0,1,3.07-8l6.59,5A8.67,8.67,0,0,0,77,481.14a8.45,8.45,0,0,0,2.14,5.41,9.15,9.15,0,0,0,7.1,3.5c2.83.08,6.09-1.41,9.79-4.5,3.91-3.25,6.12-6.28,6.61-9a9.06,9.06,0,0,0-2-7.6,8.16,8.16,0,0,0-5.16-3A12,12,0,0,0,88.28,467.53Z" transform="translate(-6 -2.88)"/><path class="cls-2" d="M91.27,447,56.89,467.93,41.38,442.42l5.81-3.53,11.29,18.57,7.62-4.65L55.61,435.51,61.4,432l10.52,17.26,9.32-5.69L69.58,424.37l5.79-3.53Z" transform="translate(-6 -2.88)"/><path class="cls-2" d="M72.66,415.53l-37.12,15.6-3.07-7.28,18.38-25.62-24.8,10.43-2.91-7,37.1-15.57,3.17,7.5L45.52,418.78l24.19-10.2Z" transform="translate(-6 -2.88)"/><path class="cls-2" d="M55.71,370l-32.36,8.39,3,11.57-6.59,1.72-8.05-31,6.61-1.7,3,11.54,32.36-8.38Z" transform="translate(-6 -2.88)"/><path class="cls-2" d="M49.88,346.36l-40,4.38L8,333.74c-.47-4.28-.46-7.44,0-9.43a9.14,9.14,0,0,1,3.31-5.07,11.41,11.41,0,0,1,6.12-2.46,10.83,10.83,0,0,1,7.74,1.82c2.13,1.56,3.67,4.05,4.54,7.51a20.72,20.72,0,0,1,2.89-4.71,47.74,47.74,0,0,1,6-5.29l7.26-5.75L47,320l-8.06,6.78a55.17,55.17,0,0,0-5.42,4.93,6.45,6.45,0,0,0-1.41,2.6,13.44,13.44,0,0,0,0,4.12l.21,1.66L49,338.28Zm-24-5.55-.67-6a33,33,0,0,0-1.28-7.2,4.74,4.74,0,0,0-2-2.11,5.35,5.35,0,0,0-3.08-.47,4.79,4.79,0,0,0-3.15,1.42,5,5,0,0,0-1.23,3.22c0,.68.17,2.63.5,5.92l.69,6.29Z" transform="translate(-6 -2.88)"/><path class="cls-2" d="M26.11,307.67a25.1,25.1,0,0,1-10.24-2.37,18.64,18.64,0,0,1-5.33-4,16,16,0,0,1-3.35-5.38A21.92,21.92,0,0,1,6,287.17q.48-8.89,6.24-13.95c3.85-3.38,9.07-4.89,15.61-4.56s11.48,2.34,15,6.06,5.09,8.52,4.79,14.43-2.37,10.66-6.21,14S32.48,308,26.11,307.67Zm.16-8.36q6.77.32,10.48-2.63a10.38,10.38,0,0,0,3.94-7.85,10.16,10.16,0,0,0-3.09-8.12q-3.36-3.31-10.34-3.66c-4.6-.24-8.08.6-10.45,2.5A10.15,10.15,0,0,0,13,287.44a10.3,10.3,0,0,0,3,8.24C18.22,297.85,21.61,299.08,26.27,299.31Z" transform="translate(-6 -2.88)"/><path class="cls-2" d="M17.23,221.13l4.88-14a29,29,0,0,1,3.22-7,13.34,13.34,0,0,1,5.51-4.53,17.58,17.58,0,0,1,7.41-1.48A29.54,29.54,0,0,1,47.69,196a27.2,27.2,0,0,1,7.7,4,17.72,17.72,0,0,1,5.29,6.38,14.06,14.06,0,0,1,1.16,6.46,23,23,0,0,1-1.56,7.08l-5,14.42Zm9.11-5.46,25.18,8.75,2-5.77a21.48,21.48,0,0,0,1.25-4.74,7.7,7.7,0,0,0-.5-3.66,8.68,8.68,0,0,0-3-3.29,27.73,27.73,0,0,0-6.72-3.18,24.55,24.55,0,0,0-7-1.58,9.35,9.35,0,0,0-4.43.93,7.37,7.37,0,0,0-3,2.94,35.07,35.07,0,0,0-2.58,6.16Z" transform="translate(-6 -2.88)"/><path class="cls-2" d="M68.89,197.09,33.26,178.34l13.89-26.41,6,3.18L43.08,174.35,51,178.49l9.38-17.88,6,3.14L57,181.64l9.7,5.12,10.46-19.92,6,3.14Z" transform="translate(-6 -2.88)"/><path class="cls-2" d="M111.21,111,118.4,107c2.38,3.87,3.41,7.57,3.05,11.11a19,19,0,0,1-18,15.87c-5,0-9.84-2.13-14.45-6.43-4.93-4.55-7.54-9.36-7.89-14.42s1.38-9.66,5.23-13.79c3.37-3.62,7.16-5.53,11.38-5.79a15.59,15.59,0,0,1,8.21,2l-4.05,7.17a8.33,8.33,0,0,0-10.73,1.61,9.2,9.2,0,0,0-2.61,7.49c.31,2.84,2.21,5.86,5.71,9.16,3.75,3.44,7,5.25,9.84,5.4a9.05,9.05,0,0,0,7.24-3,8.21,8.21,0,0,0,2.29-5.48A12.29,12.29,0,0,0,111.21,111Z" transform="translate(-6 -2.88)"/><path class="cls-2" d="M132.27,111.6,105.86,81.24,112,75.9l26.41,30.36Z" transform="translate(-6 -2.88)"/><path class="cls-2" d="M143.78,101.4,120.44,68.58,144.79,51.3l4,5.55L131,69.42l5.16,7.29L152.68,65l3.94,5.53-16.5,11.71,6.35,8.94,18.34-13,3.91,5.52Z" transform="translate(-6 -2.88)"/><path class="cls-2" d="M173.89,80.52,155.52,44.7l7-3.61,26.94,16.42L177.2,33.57l6.73-3.42,18.36,35.79L195,69.68l-26.43-16,12,23.36Z" transform="translate(-6 -2.88)"/><path class="cls-2" d="M229,40.7l8.27-.16q.38,6.84-2.57,11.21a19,19,0,0,1-23.39,5.48q-6.62-3.55-9.67-12.54c-2.12-6.36-2.16-11.84,0-16.46s5.8-7.84,11.14-9.63q7-2.34,12.78.3a15.8,15.8,0,0,1,6.27,5.72l-7,4.38a8.28,8.28,0,0,0-10.18-3.69,9.12,9.12,0,0,0-5.85,5.36c-1.08,2.63-.87,6.21.67,10.78,1.64,4.8,3.63,8,6.06,9.41a9,9,0,0,0,7.83.8,8.24,8.24,0,0,0,4.62-3.73A12.2,12.2,0,0,0,229,40.7Z" transform="translate(-6 -2.88)"/><path class="cls-2" d="M247.28,51.23,238.45,12l7.91-1.78,8.85,39.28Z" transform="translate(-6 -2.88)"/><path class="cls-2" d="M298.18,43.31l-8.76,1.05-4.58-8.66-16,1.9-2.24,9.49-8.57,1,10.8-41.83,8.53-1Zm-16.74-14-7.3-14.16-3.59,15.47Z" transform="translate(-6 -2.88)"/><path class="cls-2" d="M300,30.16l7.93-.48a9.7,9.7,0,0,0,2.71,6,8.84,8.84,0,0,0,5.81,2.07q3.93.14,6-1.46a4.85,4.85,0,0,0,2.13-3.83,3.5,3.5,0,0,0-.75-2.45A6.6,6.6,0,0,0,321,28.13c-.94-.37-3.11-1-6.44-2q-6.46-1.84-9-4.28a10.47,10.47,0,0,1-3.4-8.25A10.29,10.29,0,0,1,304,7.94,11,11,0,0,1,309.19,4a20.56,20.56,0,0,1,8-1.13c5,.18,8.8,1.42,11.29,3.73a11.81,11.81,0,0,1,3.7,9l-8.14.06a6.92,6.92,0,0,0-2.08-4.53,8.24,8.24,0,0,0-5.11-1.54,9.25,9.25,0,0,0-5.57,1.27,3,3,0,0,0-1.41,2.45A3.22,3.22,0,0,0,311,15.82c1,.9,3.46,1.89,7.39,3A40,40,0,0,1,327,22a11.41,11.41,0,0,1,4.31,4.25,11.76,11.76,0,0,1,1.35,6.46,11.5,11.5,0,0,1-2.12,6.41,11.64,11.64,0,0,1-5.59,4.3,22.27,22.27,0,0,1-8.8,1.14c-5.1-.16-9-1.47-11.61-3.91S300.42,34.68,300,30.16Z" transform="translate(-6 -2.88)"/><path class="cls-2" d="M379.72,10.83l14.31,4a29.06,29.06,0,0,1,7.15,2.83A13.22,13.22,0,0,1,406,22.92a17.44,17.44,0,0,1,1.92,7.33,29.3,29.3,0,0,1-1.33,9.51,26.72,26.72,0,0,1-3.5,7.9A17.79,17.79,0,0,1,397,53.33a14.05,14.05,0,0,1-6.35,1.53,24.37,24.37,0,0,1-7.14-1.14l-14.73-4.18Zm6,8.78-7.29,25.64,5.84,1.66a22.64,22.64,0,0,0,4.83,1,7.34,7.34,0,0,0,3.6-.73A8.13,8.13,0,0,0,395.78,44a25.33,25.33,0,0,0,2.81-6.88,24.25,24.25,0,0,0,1.19-7.1,9,9,0,0,0-1.19-4.38,7.42,7.42,0,0,0-3.09-2.85,34.6,34.6,0,0,0-6.3-2.19Z" transform="translate(-6 -2.88)"/><path class="cls-2" d="M406.75,61,423.16,24.2,450.4,36.38l-2.76,6.21-19.82-8.85-3.67,8.15,18.47,8.23-2.75,6.21-18.48-8.23-4.44,10,20.52,9.16-2.75,6.18Z" transform="translate(-6 -2.88)"/><path class="cls-2" d="M466.35,93,491.1,61.67l6.36,5-20.52,26,15.87,12.54-4.18,5.32Z" transform="translate(-6 -2.88)"/><path class="cls-2" d="M517.36,140l-6.1-6.36,4.18-8.87-11.15-11.62-8.88,4-6-6.25,39.9-16.56,6,6.22Zm1.15-21.81,7-14.34-14.55,6.43Z" transform="translate(-6 -2.88)"/><path class="cls-2" d="M554.36,200l-4.19-7.82,6.38-7.42L549,170.58,539.3,172l-4.06-7.59,42.87-5.26,4,7.58Zm6.91-20.73,10.54-12-15.71,2.29Z" transform="translate(-6 -2.88)"/><path class="cls-2" d="M558.39,211.74l31.39-11.45-4.06-11.22,6.38-2.34,11,30-6.38,2.37-4.09-11.22-31.43,11.48Z" transform="translate(-6 -2.88)"/><path class="cls-2" d="M566.65,234.5l39.49-7.76,2.34,11.94-25.52,12.45,28.33,1.79,2.33,12-39.48,7.76-1.46-7.43,31.1-6.12-32.63-1.72-1.53-7.7,29.59-13.9-31.11,6.09Z" transform="translate(-6 -2.88)"/><path class="cls-2" d="M594.56,277.44a26,26,0,0,1,10.36,1.6,20.28,20.28,0,0,1,5.61,3.64,16,16,0,0,1,3.72,5.16,22.16,22.16,0,0,1,1.78,8.63q.2,8.87-5.23,14.35c-3.6,3.63-8.7,5.51-15.24,5.63s-11.59-1.49-15.36-4.95-5.67-8.13-5.77-14,1.58-10.8,5.16-14.41S588.14,277.58,594.56,277.44Zm.46,8.37c-4.56.09-8,1.2-10.31,3.34a10.34,10.34,0,0,0-3.37,8.1,10.18,10.18,0,0,0,3.67,7.89c2.38,2,5.92,3,10.57,2.89s8-1.18,10.25-3.2a11.22,11.22,0,0,0-.38-16.18C603.09,286.66,599.66,285.7,595,285.81Zm22.51,5.66,8.29,3.62.18,8.66-8.37-7.38Z" transform="translate(-6 -2.88)"/><path class="cls-2" d="M588.09,321.87l-.3,7.93a9.71,9.71,0,0,0-6.22,2.1,8.64,8.64,0,0,0-2.63,5.57,9.4,9.4,0,0,0,.86,6.1,5.1,5.1,0,0,0,3.6,2.5,3.85,3.85,0,0,0,2.5-.49,6.93,6.93,0,0,0,2.14-2.7c.43-.91,1.33-3,2.6-6.23,1.66-4.16,3.39-7,5.18-8.57a10.6,10.6,0,0,1,14-.08,10.83,10.83,0,0,1,3.37,5.52,20,20,0,0,1,.35,8c-.67,5-2.29,8.65-4.83,10.91a11.66,11.66,0,0,1-9.32,2.75l.76-8.09a7.06,7.06,0,0,0,4.72-1.59,8.53,8.53,0,0,0,2-5,9.46,9.46,0,0,0-.71-5.68,2.93,2.93,0,0,0-2.3-1.63,3,3,0,0,0-2.58.89c-1,.9-2.22,3.25-3.67,7a40.58,40.58,0,0,1-4.06,8.32,10.88,10.88,0,0,1-4.64,3.86,12.63,12.63,0,0,1-12.73-2,11.49,11.49,0,0,1-3.73-6,22.66,22.66,0,0,1-.3-8.9c.67-5,2.37-8.75,5.08-11.13S583.52,321.79,588.09,321.87Z" transform="translate(-6 -2.88)"/><path class="cls-2" d="M569.33,358.38l38.78,10.83-7.42,26.57L594.13,394l5.21-18.77-9.18-2.56-4.5,16.2L579.12,387l4.51-16.2-16.46-4.56Z" transform="translate(-6 -2.88)"/><path class="cls-2" d="M560,390.45l36.94,16.06L585,433.87l-6.27-2.69,8.65-19.94-8.17-3.54-8,18.54-6.23-2.73L573,405l-10-4.36-9,20.64-6.18-2.72Z" transform="translate(-6 -2.88)"/><path class="cls-2" d="M545,423.81l34.14,21.34-9.06,14.48c-2.3,3.67-4.27,6.11-5.9,7.38a9.21,9.21,0,0,1-5.74,1.92,11.64,11.64,0,0,1-6.33-1.89,10.58,10.58,0,0,1-4.92-6.19c-.72-2.56-.38-5.48,1.07-8.73a18.73,18.73,0,0,1-5.2,1.89,43.54,43.54,0,0,1-8,.47h-9.26l5.16-8.25,10.52-.34a54,54,0,0,0,7.3-.48,6,6,0,0,0,2.73-1.18,14.12,14.12,0,0,0,2.55-3.23l.87-1.38-14.28-9ZM560.38,443l-3.19,5.08c-2.07,3.3-3.22,5.45-3.45,6.46a4.65,4.65,0,0,0,.23,2.84,5.42,5.42,0,0,0,2.14,2.29,5,5,0,0,0,3.37.83,5.12,5.12,0,0,0,2.94-1.79c.44-.49,1.51-2.16,3.27-4.94l3.36-5.39Z" transform="translate(-6 -2.88)"/><path class="cls-2" d="M499.86,484.51l5.76-6.68,9.23,3.29,10.52-12.19-4.75-8.48,5.61-6.54,20.26,38.18-5.61,6.49Zm21.82-.93,14.93,5.58-7.75-13.9Z" transform="translate(-6 -2.88)"/><path class="cls-2" d="M247.78,504.41c-15.2,0-23.77-3-24.28-3.18a2,2,0,0,1-1.19-2.53,2,2,0,0,1,2.53-1.19h0c.16.06,16.43,5.71,43.86,1.18,11.21-1.86,26.06-7.81,41.77-14.11,23.54-9.43,50.25-20.14,72.47-20.14h.44c31.62,0,57.23,23.83,58.3,24.86a1.94,1.94,0,0,1,.1,2.76,2,2,0,0,1-2.8.08c-.26-.24-25.57-23.75-55.6-23.75h-.44c-21.46,0-47.79,10.54-71,19.86-15.93,6.37-31,12.39-42.6,14.32A130.46,130.46,0,0,1,247.78,504.41Z" transform="translate(-6 -2.88)"/><path class="cls-2" d="M482.68,132.71c-46.06-45.34-107.27-70.3-172.42-70.3s-126.35,25-172.41,70.3S66.42,238.34,66.42,302.46s25.37,124.41,71.43,169.77,107.31,70.29,172.41,70.29,126.35-25,172.42-70.29S554.1,366.59,554.1,302.46,528.74,178,482.68,132.71ZM127.87,148.07c1.31,1.46,10.89,11.83,14.38,12.15a2.48,2.48,0,0,0,1.84-.57c19.4-17,37.59-14.6,49.47-9.58,15,6.32,32.27,24.06,33,38.21a2.07,2.07,0,0,0,.81,1.69c1,.8,2.11.52,4.44-.12,7.71-2.12,28.18-7.7,39.95,21.71.69,1.75,2.39,1.5,5.42,1.05,8.54-1.25,31.16-4.57,42.75,19.87.07.09.08.17.14.25,1.49,5.35-1,12.92-8.46,16.46-6.31,3-12.75.92-17.21-5.52l-3.3-4.74-.32,5.77c-.22,4.42-4.51,8.73-7.71,9-2.11.23-3.54-1.35-4.34-4.63l-1.23-4.87-2.41,4.37c-3.64,6.52-17.54,17.39-32.31,15.9a2,2,0,0,0-2.18,1.74,2,2,0,0,0,1.79,2.18c14.87,1.54,28-7.69,33.89-14.72a7.23,7.23,0,0,0,7.13,4c4.23-.41,8.44-4.17,10.33-8.63a16.55,16.55,0,0,0,19.56,3.71c6.55-3.11,12.26-10.67,11-19.09q1-.13,2.12-.33c5.56-.83,15.87-2.42,21.38,2.61,3.09,2.84,4.42,7.6,4,14.15-.69,10.39-4.27,16.54-10.61,18.34-8.21,2.3-18.5-3.37-21.16-7.1l-3-4.22-.58,5.16c-.37,3.09-8.57,10.44-23.07,16.22-9.22,3.65-41,14.19-62.89-4.21l-1.42-1.2-1.28,1.39c-10.36,11.25-28.21,16.77-43.44,13.42-11-2.4-25.79-10.29-34-34l9.66-5a2,2,0,0,0-1.81-3.53L147,251.21c-18.21,5.12-32.77-2.32-41.8-9.51-10.39-8.21-17.32-19.21-18.7-24.06a2.31,2.31,0,0,0-.61-.93A234.08,234.08,0,0,1,127.87,148.07Zm131.94,28.24c0-20.83,17-37.9,38.21-39l.58,0c.51,0,1,0,1.52,0,22.26,0,40.36,17.5,40.36,39,0,1-.05,2-.13,3,0,.17,0,.34,0,.52-.09,1-.21,1.92-.38,2.87,0,.12,0,.23-.07.35a37.88,37.88,0,0,1-1.53,5.81l-.1.29q-.5,1.39-1.1,2.73l-.12.26q-.6,1.31-1.3,2.58l-.06.12c-.45.8-.93,1.58-1.44,2.35l-.4.59q-.71,1-1.49,2l-.59.72c-.39.48-.79.94-1.21,1.4s-.68.74-1,1.1-.78.79-1.18,1.17-.64.61-1,.9q-.78.69-1.6,1.35c-.37.29-.74.57-1.12.85s-.73.53-1.1.78q-.81.56-1.65,1.08c-.44.27-.87.53-1.32.79l-1.08.6q-1,.55-2.14,1.05l-.91.4c-.81.35-1.64.68-2.48,1l-.42.14q-1.31.45-2.67.81l-1,.25a35.64,35.64,0,0,0-11.33-5c-9-2.28-17.35-1-21.9-.38l-.78.12-.95-.11c-3.46-8.17-7.6-13.74-12-17.51A37.66,37.66,0,0,1,259.81,176.32Zm44.34-56.39c.07.32,1.88,7.85,7.52,10a2.93,2.93,0,0,0,1.06.2h0c2.84,0,5.92-4,9.94-11.51l-.19.56-.42,1.26c-.11.34-.26.7-.41,1.08-.89,2.2-2.23,5.53,1.29,9.37l.15.14a3.43,3.43,0,0,0,2.22.78c2.34,0,5.19-2,8.52-5.21v.07c-.06.91-.45,8.93,2.6,12a3.47,3.47,0,0,0,2.55.91c7.3,0,29.89-15.13,32.48-16.88,3-2.2,6.53-4.71,10.14-7.28-3.45,2.57-6.81,5.05-9.76,7.2l-.18.15c-22.53,22.45-22.53,23.43-22.53,24.22,0,1.86,2,2.18,6.89,2.94l1.63.26c-4.28,1.42-8.7,2.9-8.52,5.7a5.41,5.41,0,0,0,1.68,4c6.37,6.58,31.84,7.47,39.91,7.58-14,2.07-29.59,5.38-30,9.87-1.1,6.67,14,10.55,33.1,14.38l-.4,0c-8.08-.72-18.13-1.62-25.34-1.62-7.37,0-10.51.84-11.2,2.93a2.67,2.67,0,0,0,.12,2.15c1.26,2.68,8.38,6.45,19.16,10.89-11.06-3.25-19.85-5.47-23.42-5.47-.62,0-2.24,0-2.89,1.23-2.74,4.38.45,10,4.47,15-2.3-2.24-4-3.56-5.41-3.67h-.24c-3.12,0-21.55,5.41-31.06,8.26a37.44,37.44,0,0,0-4.73-4.88c.93-.28,1.85-.59,2.75-.93l.88-.34c.83-.33,1.64-.67,2.44-1,.36-.17.72-.35,1.07-.53s1-.5,1.45-.76,1.19-.67,1.77-1,.87-.54,1.3-.82.89-.6,1.33-.91.64-.48,1-.72c.67-.51,1.32-1,2-1.58l.89-.78c.45-.41.89-.82,1.32-1.24s.92-.93,1.37-1.41c.3-.33.6-.66.89-1q.66-.76,1.28-1.54l.75-1q.66-.88,1.27-1.8l.46-.69q.76-1.18,1.43-2.41l.26-.5c.47-.88.91-1.77,1.31-2.68h0c.42-1,.79-1.92,1.14-2.91l.13-.38c.34-1,.64-2,.9-3l0-.17q.37-1.47.63-3c0-.11,0-.21.06-.32.17-1,.29-2,.38-3,0-.2,0-.39,0-.59.08-1,.13-2.06.13-3.11q0-1.08-.06-2.15c0-.25,0-.5-.06-.74,0-.46-.06-.92-.11-1.38,0-.3-.08-.59-.12-.89s-.1-.8-.16-1.2-.11-.6-.16-.9-.13-.78-.21-1.16-.14-.61-.22-.92-.17-.74-.26-1.11-.18-.62-.27-.93-.2-.71-.31-1.06-.22-.62-.32-.93-.23-.68-.35-1-.25-.61-.37-.92-.26-.66-.4-1-.28-.6-.41-.89-.29-.64-.45-1-.31-.59-.46-.89-.32-.62-.49-.92-.34-.58-.51-.87-.34-.59-.53-.89-.37-.56-.55-.85-.37-.57-.57-.86-.4-.55-.6-.82-.4-.55-.6-.82-.42-.53-.63-.79-.42-.53-.64-.79-.45-.51-.67-.76l-.68-.76c-.23-.25-.48-.49-.72-.74s-.47-.49-.71-.72l-.75-.7-.75-.69-.78-.67-.78-.65-.82-.63-.81-.61-.85-.6-.84-.58-.88-.56-.87-.54-.9-.52-.9-.5-.93-.47-.93-.46-.95-.43-1-.42-1-.38-1-.38-1-.34-1-.33-1-.29-1-.29-1-.24-1.06-.24-1-.19L307,134.8l-1-.14-1.11-.14-1.05-.09-1.14-.08-1.06,0-.79,0c1.31-6.11,2.56-11.88,3.73-17.26l-.43,2.3-.06.31Zm6.12,419.3c-64.26,0-124.67-24.62-170.12-69.34a236.42,236.42,0,0,1-54.43-82.12,1.27,1.27,0,0,0,.44,0A2,2,0,0,0,88,385.71c-.31-8.49,9.84-30.91,27.08-48.1C125.39,327.31,142,315.26,162.5,316c25.95,1,40.75,11.51,48.58,20.15,9.74,10.75,12.74,22.6,12.28,30.13-1.07,17.83-11.42,31.81-25.21,34-12,2-26-5.61-29-8.44a17.1,17.1,0,0,1,1.73-1c4.7-2.53,13.45-7.23,11.61-18.84a14.7,14.7,0,0,0-6.54-10c-9-6.28-24.59-6.58-31-5.34-3.41.65-22.92,7.37-33.43,23.28-6.54,9.92-8.47,21.43-5.72,34.28l.07.13c8.3,28.8,47.6,57.93,94.35,57.93,2,0,4-.05,6.06-.14,21.94,1.31,53.71-6.95,87.36-15.7,29.38-7.66,59.76-15.54,82-16.12,25.69,1.07,62.39,6.81,84.73,44.39a2,2,0,0,0,1.73,1,2.16,2.16,0,0,0,.85-.19A241.26,241.26,0,0,1,310.26,539.23ZM173.42,434.56c7,14.37,23.81,26,47.82,33.28a97.11,97.11,0,0,1-14.86.37h-.21a110.41,110.41,0,0,1-62.57-15.66c-17.4-10.51-29.77-24.77-34-39.22-2.49-11.69-.78-22.18,5.16-31.17,9.74-14.79,27.74-21,30.88-21.56,5.66-1.11,20.09-.86,28,4.67a11.18,11.18,0,0,1,4.94,7.43c1.4,8.81-5,12.24-9.61,14.72-2.41,1.24-4.13,2.2-4.27,4-.1,1.42,1,2.61,1.82,3.39a33.6,33.6,0,0,0,7.42,4.7C168.46,412.2,168.28,424,173.42,434.56Zm307,35.33q-8.12,8-16.81,15a1.87,1.87,0,0,0,.12-2.11c-23.32-39.3-61.42-45.28-88-46.34h-.15c-22.68.53-53.32,8.51-82.93,16.21C271.08,458.28,249,464,230.45,466.73a2.06,2.06,0,0,0-1.1-.74,136,136,0,0,1-23.92-8.36c15.35-20.6,34.07-45.57,50.5-67.41a.17.17,0,0,0,.07,0c6.56-4.13,14.59-8.41,17.08-8.82,0,2.78-5.66,12.52-9.46,19.12-10.21,17.62-16.56,29.57-11.88,34.86a4.18,4.18,0,0,0,3.24,1.48,2.41,2.41,0,0,0,.36,0c7.33-.51,20.25-19.29,39.06-47.81,8.64-13.13,19.35-29.34,22.73-31.29,1.34,1.77,1.43,10.73,1.48,16.12.1,12.16.4,19.69,4.73,21,4.69,1.36,8.37-7.06,15.71-26.63,1.74-4.78,4-10.78,5.76-14.55-.12,3.49-.41,8.44-.64,13-1.64,28.35-1.45,36.64,3,36.95,3.37.23,5-4.39,12.3-35.15,2.75-11.53,5.84-24.58,8.85-34.59,4.16-13.85,6.5-16.4,7.22-16.86.66.38,2.91,2.69,5.33,15.94,1.81,9.87,3.11,22.09,4.11,31.95,1.77,17,2.06,18.2,3.88,18.8,2.5.84,4-1.82,5.25-4,.25-.45.59-1.09.92-1.62,1,2.17,2.52,7.27,3.58,10.82,2.6,8.77,3.47,11.23,4.77,12.17a3.39,3.39,0,0,0,4.23-.11c.63,1.82,1.76,6.07,2.71,9.59,4.64,17.46,5.87,20.49,8.63,20.36a2.3,2.3,0,0,0,1.61-.81c1.25-1.57,1-5.29-1.46-23.51-.81-5.5-1.74-12.42-2.1-16.68,2.52,3.68,6.3,10,9.31,15,10.85,18.28,12,19.5,14.22,19,2-.5,1.89-2.85,1.66-5.82-.15-2.25-.48-5.43-1-9.7-1-7.86-2.5-18.5-3.95-28.76-2-13.67-4.34-30-4.89-37,1.28,1.58,3,4.05,5.2,7.39a15.5,15.5,0,0,0,1.55,2.28c1.18,1.19,2.75.63,3.63.28a5.52,5.52,0,0,1,1.05-.28c1,1.47,3.82,6.91,6.05,11.29,9.57,18.75,10.71,20,13,19.07,2.1-.81,1.81-2.94-.38-10.9-1.36-4.92-3.29-11.31-5.16-17.46-1.12-3.75-2.42-7.92-3.44-11.43,1.66,2.42,3.5,5.1,5.06,7.45,9.77,14.43,10.2,15,12.2,14.11s1.73-3.21,1.22-7.89a.43.43,0,0,1,0-.21c2.86,3.4,7.23,8.85,11.28,13.83,5.66,7,12.05,14.87,17.12,20.87,9.09,10.74,10.2,11.44,12.05,10s2.07-1.64-10.33-33.91c-2.88-7.57-6.27-16.38-8.06-21.63,2.88,2.65,6.71,6.54,8.77,8.58,3.62,3.66,4,4,4.57,4.3,1.27.59,2.61-.15,4.83-1.26a21.62,21.62,0,0,1,3.4-1.56c2.33,1.64,12.09,12,20.62,21.65a1.91,1.91,0,0,0,1.84.59A235.15,235.15,0,0,1,480.39,469.89Zm59.15-95.41h0c-20.23-22.86-22.15-22.95-23.07-23-1.55-.07-3.24.79-5.71,2.06-.51.25-1.15.6-1.66.85-.74-.72-2-2-3.11-3.13-12.55-12.67-14.11-13.5-16.07-11.86-1.55,1.32-1.73,1.46,8.85,29,3.19,8.3,7.2,18.73,9.36,25.11-5.39-6.09-14.69-17.56-21.43-25.92-15-18.44-15-18.44-16.51-18.28a2.13,2.13,0,0,0-1.46.81c-.9,1.09-.76,2.76-.3,6.79a.45.45,0,0,0,0,.2c-1.89-2.65-4.26-6.13-6.2-9.1-2.43-3.57-4.95-7.3-6.91-10-3-4.22-4.29-5.86-6.13-5s-1.41,2.82.2,8.59c1.05,3.71,2.57,8.62,4.13,13.83,1.43,4.74,3.26,10.7,4.65,15.68-1.69-3.2-3.47-6.66-4.87-9.36-5.9-11.59-6.56-12.59-7.68-13.14a5.41,5.41,0,0,0-4.19.18c-.18-.28-.39-.67-.61-.94-6-9.23-8.4-11.71-10.85-11-1.92.51-2.35,1.19-.59,15.17,1,7.7,2.43,18.1,3.9,28.18,1.89,13.17,4.11,28.77,4.82,36.5-2.37-3.59-5.76-9.25-8.44-13.77-11.36-19.09-12.56-20.35-14.88-19.69-2.55.75-2.5,3.18.33,23.88.53,3.73,1.15,8.12,1.6,11.87-.94-3.18-1.89-6.73-2.62-9.44-2.27-8.6-3-10.92-3.78-11.84s-2.48-2-4.75-.19c-.81-1.7-2.15-6.3-3.21-9.77-2.85-9.59-4-12.72-5.48-13.76a3,3,0,0,0-2.32-.5c-1.79.43-2.83,2.28-3.93,4.26a.91.91,0,0,0-.15.28c-.51-3.17-1-8.44-1.58-13.57-3.59-34.52-6.51-51-13.29-51.52h-.2l-.2,0c-5.87.67-10.61,16.66-19.62,54.57-2.71,11.4-6,25.14-8,30.4-.92-5.92,0-21.9.56-31.09.92-16.21.89-18.62-.25-19.86l-.44-.52-.67-.1c-3.21-.58-5.15,3.65-11.43,20.48-2.94,7.91-8.39,22.42-11,24.09-1.61-1.55-1.7-11.61-1.77-17.08-.11-11.23-.19-19.35-4.92-20.16-3.77-.45-9.07,6.68-26.54,33.19-12,18.19-30.06,45.62-36,46.06-.21,0-.26,0-.35-.15-3.13-3.54,6.57-20.27,12.36-30.25,7-12.19,11-19.25,9.69-22.83a3.51,3.51,0,0,0-1.93-2c-1.84-.71-6.07.71-12.62,4.33,18.07-24,32.22-42.51,34-44.26.59-.37,1.24-.26,2.78.12a9.91,9.91,0,0,0,7.37-.53c4.95-2.64,15.5-17.77,28.81-37.27,5.1-7.47,9.52-13.94,11.48-16.16,2.3-.81,14.57.63,24.46,1.72,13.44,1.55,27.3,3.13,33,1.89,8.54-1.85,21.28-15.54,31.44-27.26,1.05-1.2,1.86-2.15,2.17-2.44,1.46-1.47,5.79-1.12,7.47.11.79.77,4.82,6.87,8.68,12.71,12.6,19,22.56,33.75,26.77,35.54s6.15,1.18,8,.45c.54-.21.64-.25.82-.21,3.19,2.71,31,37.82,49.06,61a2,2,0,0,0,2.76.34,1.88,1.88,0,0,0,.64-.86C541.14,369.4,540.34,372,539.55,374.48ZM386.77,283.29a181.27,181.27,0,0,0,37-15.95c-6.72,7.12-15.19,15.09-20.59,16.26C400.2,284.26,394,283.95,386.77,283.29Zm154.8,81.65c-17.71-22.7-47.79-61-50.45-62.16a4.72,4.72,0,0,0-4.06.12c-1,.45-2,.85-4.93-.42-3.44-1.47-18-23.51-25-34.1-6.78-10.26-8.63-12.91-9.55-13.6-2.86-2.17-9.47-3.06-12.69.16-.41.43-1.2,1.31-2.37,2.69l-.17.19c-18,13.13-47,23.46-56.45,24.33l-4.4-.5C351,279.32,345.61,279,343.77,281c-2,2.2-6.38,8.63-11.92,16.75-9.12,13.37-22.94,33.56-27.43,36-1.56.86-3,.49-4.59.12s-3.9-.9-6,.54c-2.87,2.09-70.66,92.78-92,121.36-12-6.27-20.51-14.08-24.83-22.92-4.64-9.52-4.44-20.2.59-31.74,6.32,2.48,14.14,4.21,21.19,3.1,15.86-2.56,27.34-17.7,28.52-37.68.52-8.33-2.71-21.4-13.29-33-8.34-9.19-24-20.4-51.34-21.44-22-.83-39.53,11.89-50.38,22.72-16,16-27,37.53-28.16,48.82a235.59,235.59,0,0,1-.22-161.73c2.86,6.1,9.49,15.49,18.84,22.92,9.55,7.59,24.79,15.38,44,10.57,6.95,19.84,20,32.75,36.82,36.43a48.41,48.41,0,0,0,10.17,1.08c13.21,0,26.57-5.25,35.71-14.36,23.51,18.2,55.94,7.47,65.45,3.67,9.84-3.91,20.57-10.21,24.25-16.09,5.11,4.47,15,8.51,23.17,6.19,5.61-1.6,12.45-6.67,13.48-21.87.49-7.86-1.28-13.69-5.3-17.37-6.89-6.32-18.45-4.54-24.65-3.59-1,.15-2.08.33-2.79.38a48,48,0,0,0-3.44-5.86c11.94-3.62,26.62-7.85,29.07-7.85,1.1.21,4.65,3.9,6.76,6.1,4.46,4.64,6.46,6.53,8.21,6.53a2.07,2.07,0,0,0,1.67-.81c1.34-1.75-.52-3.84-4.23-8-4.37-4.9-10.92-12.25-8.75-16.35l.44,0c8,0,47.32,13,73.34,21.57,19.66,6.49,27.23,8.94,28.73,8.94h0a1.6,1.6,0,0,0,1.51-.91l.29-.65-.27-.63c-.44-1-.48-1.14-21.77-8.27C413,216.41,362.74,199.58,359.84,194c.49-.28,2.26-.93,8.25-.93,7.07,0,17.05.89,25.07,1.61,6,.53,11.16,1,13.94,1,1.36,0,3.4,0,3.54-1.71.21-2-1.51-2.37-12.75-4.58-9.59-1.88-35.06-6.88-34.15-11.62l0-.17c1.35-2.16,16.2-5.58,29.42-7.45,1.43-.05,21.62-.82,41.56-1.71,43.08-1.93,43.08-2.14,43.08-4.14,0-1.81-1.09-1.81-8.2-1.81-19.6,0-76.31,1.89-76.89,1.91-11.51,0-34.62-1.39-39.73-6.67a2.57,2.57,0,0,1-.83-1.83c.56-.93,4.69-2.3,6.47-2.89,3.38-1.12,5.08-1.69,4.84-3.38s-2.2-2-7-2.76c-1.05-.16-2.43-.38-3.46-.59,3.31-3.8,13.85-14.49,20.71-21.33,1-.73,9.81-7.19,18.42-13.71,19.5-14.76,19.18-15.26,18.28-16.72l-.55-.79H409c-2.35,0-22.69,14.38-39.29,26.42-6.72,4.54-25.35,16.33-30.74,16.33-.29,0-.42,0-.41,0-1.48-1.52-1.84-6.2-1.73-9.15,10-11.52,9.08-13,8.5-13.88a1.68,1.68,0,0,0-1.4-.74c-1.2,0-2.23,1.07-6,5.17-3.48,3.8-10,10.86-12.64,10.86a.5.5,0,0,1-.23,0c-2.1-2.36-1.41-4.08-.61-6.07.18-.45.35-.88.48-1.27l.41-1.22c5.72-16.88,5.4-17.17,4.44-18l-.45-.39h-.57c-1.17,0-1.27.21-3.9,5.7-6.25,13.05-10.34,19.67-12.12,19.67-3.61-1.38-5.21-6.31-5.57-7.56,8.79-46.65,8.09-47.59,7.57-48.27l-.49-.63h-.76c-1.64,0-1.73,0-7.36,25.09-3.08,13.72-6.52,29.64-8.44,38.61-22.79,1.22-40.94,19.59-40.94,42A40.7,40.7,0,0,0,258.49,188c-11.11-6.55-22.7-3.39-27.73-2l-.47.15c-2-13-16.17-31.69-35.19-39.73-12.75-5.4-32.24-8.06-52.91,9.63-2.71-1.59-10.37-9.33-11.39-10.62-.1-.11-.2-.2-.3-.3,3.11-3.45,6.33-6.82,9.64-10.1C185.59,90.31,246,65.68,310.26,65.68S434.94,90.31,480.39,135s70.42,104.17,70.42,167.41a234.7,234.7,0,0,1-8.86,64.18A2,2,0,0,0,541.57,364.93Z" transform="translate(-6 -2.88)"/></svg>